<svg width="48" height="55" viewBox="0 0 48 55" fill="none" xmlns="http://www.w3.org/2000/svg">
<path d="M9.30002 11.1848H7.97124V5.94543L0.125977 13.7666L7.97124 21.3021V16.3484H9.30002C11.4205 16.3484 13.1452 18.0731 13.1452 20.1936V54.9448H18.3088V20.1936C18.3088 15.2262 14.2674 11.1848 9.30002 11.1848Z" fill="#017EB1"/>
<path d="M45.8074 31.7298L37.9621 24.1943V29.2925H36.8399C31.721 29.2925 27.5557 33.4579 27.5557 38.5767V54.9454H32.7193V38.5767C32.7193 36.3047 34.5679 34.4562 36.8399 34.4562H37.9621V39.5544L45.8074 31.7332V31.7298Z" fill="#003E73"/>
<path d="M47.9996 0.0865029L37.1216 0.000442505L40.5261 3.60121L22.6014 21.9114C21.1935 23.3469 20.4189 25.2471 20.4189 27.2575V54.9449H25.5826V27.2575C25.5826 26.6069 25.8339 25.9907 26.2917 25.5225L44.0787 7.35345L47.676 11.1573L48.003 0.0830605L47.9996 0.0865029Z" fill="#065496"/>
</svg>
