<svg width="23" height="23" viewBox="0 0 23 23" fill="none" xmlns="http://www.w3.org/2000/svg">
<path fill-rule="evenodd" clip-rule="evenodd" d="M15.8285 0C19.4678 0 22.4403 2.90967 22.5417 6.52477L22.5444 6.71568V15.828C22.5444 19.4672 19.6346 22.4403 16.0194 22.5417L15.8285 22.5444H6.71589C3.0766 22.5444 0.104093 19.6341 0.00267485 16.0189L0 15.828V6.71568C0 3.0765 2.90976 0.10409 6.52498 0.00267477L6.71589 0H15.8285ZM15.8285 2.26765H6.71591C4.31413 2.26765 2.35641 4.17194 2.27058 6.55272L2.26765 6.71577V15.8281C2.26765 18.2298 4.172 20.1875 6.55286 20.2733L6.71591 20.2762H15.8285C18.231 20.2762 20.1881 18.3719 20.2739 15.9912L20.2768 15.8281V6.71577C20.2768 4.31407 18.3731 2.3564 15.9916 2.27058L15.8285 2.26765ZM10.9199 4.93159C14.2221 4.93159 16.9083 7.6179 16.9083 10.9196C16.9083 14.222 14.2221 16.9083 10.9199 16.9083C7.61774 16.9083 4.93159 14.222 4.93159 10.9196C4.93159 7.6179 7.61774 4.93159 10.9199 4.93159ZM10.92 7.26116C8.89893 7.26116 7.26116 8.89903 7.26116 10.9202C7.26116 12.9407 8.89893 14.5793 10.92 14.5793C12.9411 14.5793 14.5789 12.9407 14.5789 10.9202C14.5789 8.89903 12.9411 7.26116 10.92 7.26116ZM16.9079 4.22708C17.6862 4.22708 18.3173 4.85818 18.3173 5.63575C18.3173 6.41402 17.6862 7.04513 16.9079 7.04513C16.1297 7.04513 15.4993 6.41402 15.4993 5.63575C15.4993 4.85818 16.1297 4.22708 16.9079 4.22708Z" fill="#DAC4FB"/>
</svg>
