<svg width="23" height="23" viewBox="0 0 23 23" fill="none" xmlns="http://www.w3.org/2000/svg">
<path fill-rule="evenodd" clip-rule="evenodd" d="M11.2722 0C5.04674 0 0 5.04674 0 11.2722C0 17.4977 5.04674 22.5444 11.2722 22.5444C17.4977 22.5444 22.5444 17.4977 22.5444 11.2722C22.5444 5.04674 17.4977 0 11.2722 0ZM6.68882 8.28852C7.57954 8.28852 8.13428 7.69882 8.13428 6.96185C8.1177 6.20929 7.57954 5.6361 6.70566 5.6361C5.83177 5.6361 5.26045 6.20929 5.26045 6.96185C5.26045 7.69882 5.81488 8.28852 6.6725 8.28852H6.68882ZM7.96603 17.0114V9.33613H5.41151V17.0114H7.96603ZM17.1786 12.6106L17.1785 17.0114H14.6241V12.9051C14.6241 11.8737 14.2545 11.1699 13.3297 11.1699C12.624 11.1699 12.2036 11.6444 12.019 12.1027C11.9514 12.2669 11.9348 12.4957 11.9348 12.7251V17.0116H9.38002C9.38002 17.0116 9.41369 10.0565 9.38002 9.33633H11.9348V10.4235C12.2739 9.90086 12.8811 9.1559 14.2374 9.1559C15.9184 9.1559 17.1786 10.2531 17.1786 12.6106Z" fill="#DAC4FB"/>
</svg>
